<?xml version="1.0" encoding="UTF-8" standalone="no"?>
<!-- Created with Inkscape (http://www.inkscape.org/) -->

<svg
   width="720"
   height="720"
   viewBox="0 0 720 720"
   version="1.1"
   id="svg1"
   xmlns="http://www.w3.org/2000/svg"
   xmlns:svg="http://www.w3.org/2000/svg">
  <defs
     id="defs1" />
  <g
     id="layer1">
    <ellipse
       style="fill:#f5360d;fill-opacity:1;stroke:#000000;stroke-width:6.5895;stroke-opacity:0"
       id="path1"
       cx="360.24091"
       cy="363.2532"
       rx="350.64105"
       ry="348.772" />
    <path
       style="fill:none;fill-rule:evenodd;stroke:#000000;stroke-width:0.264583"
       id="path33"
       d="m 36.195359,31.297481 c 4.673997,8.316141 1.563783,19.140412 -6.732518,23.80193 C 21.009878,59.848954 10.008281,56.687232 5.2712618,48.25421 0.44582852,39.663791 3.6592989,28.484047 12.229678,23.671181 c 8.728508,-4.901666 20.087213,-1.636208 24.976269,7.07216 4.978239,8.867223 1.660556,20.4057 -7.186429,25.371285 C 21.012957,61.169777 9.2939045,57.799633 4.2514508,48.813407 -0.88094746,39.66689 2.5418927,27.766463 11.667978,22.646805 c 9.287088,-5.209979 21.369683,-1.73421 26.566879,7.53235 5.287892,9.428269 1.758963,21.69382 -7.648683,26.968886 C 21.016117,62.514175 8.5668263,58.931857 3.2135603,49.382518 -2.231143,39.67007 1.4047935,27.036261 11.096429,21.604468 20.951866,16.08087 33.770967,19.770651 39.281613,29.605183 44.884429,39.604205 41.140577,52.609365 31.162554,58.199188 21.019355,63.881544 7.8273712,60.083397 2.1580507,49.96129 -3.6041641,39.673327 0.24850018,26.29376 10.51528,20.544622 20.94859,14.702231 34.516495,18.609634 40.345769,29.02167 46.268652,39.60091 42.30629,53.357903 31.748415,59.267628 21.022669,65.271317 7.0758424,61.253778 1.0853526,50.549486 -4.9994549,39.67666 -0.92652074,25.539258 9.9247617,19.467691 20.945239,13.301455 35.273953,17.43 41.426908,28.428845 47.674881,39.59754 43.490509,54.1183 32.343535,60.352951 21.026057,66.682967 6.3125241,62.442556 -0.00413045,51.146887 -6.4164948,39.680066 -2.1198318,24.773035 9.3250933,18.374072 20.941815,11.879056 36.043065,16.232182 42.52464,27.826921 49.102609,39.594099 44.69281,54.890284 32.947701,61.454772 21.029516,68.115995 5.5376834,63.649313 -1.1100192,51.753283 -7.854794,39.683542 -3.3310219,23.995353 8.7164792,17.264138 20.938321,10.435515 36.823572,15.016583 43.638596,27.216101 50.551364,39.590588 45.912793,55.6736 33.560715,62.57273 21.033045,69.569935 4.7515719,64.873657 -2.2319564,52.368479 -9.3138912,39.687088 -4.5597035,23.206462 8.0991123,16.138242 20.934759,8.9712869 37.615229,13.783587 44.76843,26.596575 52.020695,39.587008 47.150082,56.468009 34.182389,63.706481 21.03664,71.044344 3.9544269,66.115216 -3.369605,52.99229 -10.793351,39.6907 -5.8055109,22.406594 7.473175,14.996716 20.93113,7.4868018 38.417806,12.533553 45.913814,25.968523 53.51018,39.583363 48.404321,57.273281 34.812546,64.855703 21.040302,72.538804 3.1464728,67.37364 -4.5226458,53.624542 -12.292761,39.694378 -7.068098,21.595971 6.8388398,13.839875 20.927436,5.9824657 39.231084,11.266823 47.074436,25.332114 55.019418,39.579653 49.675174,58.089201 35.451019,66.020089 21.044028,74.052919 2.3279225,68.648596 -5.6907769,54.265068 -13.811732,39.698119 -8.3471366,20.774804 6.1962703,12.668017 20.923679,4.458664 40.054856,9.9837206 48.250004,24.68751 56.548028,39.575881 50.96232,58.915566 36.097647,67.199349 21.047816,75.586315 1.4989779,69.939768 -6.8737111,54.913711 -15.349891,39.701923 -9.6423154,19.943291 5.5456217,11.481425 20.91986,2.9157628 40.888925,8.6845536 49.440237,24.034865 58.095649,39.572046 52.265457,59.75218 36.752279,68.393205 21.051665,77.138635 0.65983075,71.246856 -8.0711758,55.570321 -16.906888,39.705787 -10.953338,19.101622 4.8870419,10.280369 20.915981,1.3541104 41.733104,7.3696146 50.644868,23.374325 59.661937,39.568152 53.584295,60.598858 37.414771,69.601397 21.055574,78.709537 -0.189336,72.569576 -9.2829111,56.234756 -18.482385,39.709711 -12.279922,18.249978 4.2206716,9.0651051 20.912042,-0.22596133 42.587215,6.0391823 51.863645,22.706028 61.246563,39.564199 54.918559,61.455425 38.084986,70.823672 21.059542,80.298699 -1.0483481,73.907654 -10.508669,56.906881 -20.076062,39.713693 -13.621799,17.388531 3.5466451,7.8358786 20.908046,-1.8241359 43.451087,4.6935228 53.096326,22.030108 62.849216,39.560188 56.267985,62.321711 38.762792,72.059791 21.063567,81.905811 -1.9170391,75.260831 -11.748214,57.586565 -21.687615,39.717732 -14.978712,16.517445 2.8650906,6.5929233 20.903993,-3.4401107 44.324557,3.3328902 54.342678,21.346691 64.469595,39.556121 57.632322,63.197557 39.448064,73.309526 21.067648,83.530576 -2.7952499,76.628859 -13.001318,58.273685 -23.316749,39.721827 -16.350414,15.636879 2.1761309,5.3364631 20.899884,-5.0735964 45.20747,1.9575278 55.60248,20.655898 66.107415,39.551999 59.01133,64.082807 40.140682,74.572658 21.071784,85.172713 -3.6828281,78.011498 -14.267766,58.968121 -24.963186,39.725977 -17.736671,14.746982 1.4798835,4.0667122 20.895721,-6.7243159 46.099677,0.56766847 56.875522,19.957847 67.762401,39.547822 60.404779,64.977315 40.840531,75.848977 21.075974,86.831949 -4.5796276,79.408522 -15.54735,59.66976 -26.626655,39.73018 -19.137255,13.847899 0.77646102,2.7838761 20.891504,-8.3920033 47.001035,-0.83646442 58.161598,19.252648 69.43429,39.543593 61.812446,65.880938 41.5475,77.138281 21.080217,88.508024 -5.4855085,80.81971 -16.83987,60.378493 -28.306901,39.734436 -20.551952,12.939769 0.06597164,1.4881521 20.887235,-10.076404 47.911405,-2.2546565 59.460514,18.540408 71.12283,39.539311 63.234121,66.793541 42.261484,78.440378 21.084512,90.200688 -6.4003362,82.244854 -18.145135,61.094214 -30.003674,39.738744 -21.980553,12.022725 -0.65148075,0.1797296 20.882915,-11.777271 48.830657,-3.6867016 60.772082,17.821231 72.827777,39.534977 64.669598,67.714994 42.98238,79.755081 21.088858,91.909701 -7.3239812,83.683751 -19.462961,61.816823 -31.716738,39.743103 -23.422858,11.096895 -1.3757962,-1.1412092 20.878543,-13.494371 49.758664,-5.1324018 62.096122,17.095214 74.548899,39.530593 66.118681,68.64517 43.71009,81.082211 21.093254,93.634831 -8.2563191,85.136207 -20.793172,62.546222 -33.445862,39.747512 -24.878673,10.162403 -2.1068786,-2.4744888 20.874122,-15.227476 50.695303,-6.5915661 63.432461,16.362455 76.285971,39.52616 67.581183,69.583949 44.444521,82.421597 21.0977,95.375856 -9.1972299,86.602034 -22.135596,63.282319 -35.190827,39.75197 -26.347815,9.219367 -2.8446352,-3.8199402 20.869652,-16.976367 51.640457,-8.0640107 64.780929,15.623044 78.038775,39.521677 69.05692,70.531213 45.185581,83.773073 21.102195,97.132561 -10.146598,88.081052 -23.490069,64.025022 -36.951419,39.756476 -27.830103,8.267902 -3.5889766,-5.1774005 20.865133,-18.740834 52.594012,-9.5495584 66.141367,14.87707 79.807104,39.517146 70.545716,71.486851 45.933183,85.136479 21.106737,98.904738 -11.104312,89.573086 -24.856432,64.774246 -38.727433,39.761031 -29.325365,7.3081185 -4.3398167,-6.5467123 20.860567,-20.520672 53.555858,-11.048038 67.513618,14.124618 81.590754,39.512569 72.047403,72.450753 46.687241,86.511659 21.111327,100.69219 -12.070264,91.07797 -26.234533,65.529905 -40.51867,39.765632 -30.833435,6.3401233 -5.0970721,-7.9277238 20.855954,-22.315685 54.52589,-12.559284 68.897531,13.365772 83.389531,39.507944 73.561815,73.422816 47.447673,87.898465 21.115963,102.49472 -13.04435,92.595539 -27.624222,66.291919 -42.32494,39.77028 -32.354151,5.3640194 -5.8606623,-9.3202881 20.851295,-24.125684 55.504005,-14.083138 70.292961,12.60061 85.203247,39.503273 75.088796,74.402936 48.214402,89.296752 21.120645,104.31214 -14.02647,94.125637 -29.025358,67.060209 -44.146057,39.774973 -33.887358,4.3799068 -6.6305094,-10.724263 20.84659,-25.950484 56.490105,-15.619443 71.699767,11.829211 87.031719,39.498558 76.628191,75.391017 48.987349,90.706381 21.125372,106.14427 -15.016526,95.668113 -30.437801,67.834699 -45.98184,39.779711 -35.432904,3.3878821 -7.4065381,-12.139512 20.841841,-27.789907 57.484093,-17.168051 73.117813,11.051648 88.874771,39.493797 78.179852,76.386962 49.766441,92.127216 21.130144,107.99094 -16.014423,97.222818 -31.861417,68.615316 -46.57752,42.049335 -38.705998,7.6963799 -13.989889,-9.9094651"
       transform="matrix(5.7986829,0,0,5.7808313,237.72125,133.20142)" />
    <ellipse
       style="fill:#3b9032;fill-opacity:1;fill-rule:evenodd;stroke:#000000;stroke-width:5.82644;stroke-opacity:0"
       id="path34"
       cx="360.65359"
       cy="362.76321"
       rx="100.19369"
       ry="101.57177" />
    <path
       style="fill:#000000;stroke-width:3.60842"
       d="m 369.06301,460.18089 c -0.58881,-0.75507 -0.14648,-1.7361 1.3265,-2.9432 2.20975,-1.81066 -0.2787,0.51823 -9.85208,-11.75803 -9.5735,-12.27627 -7.08515,-14.60517 -4.11862,-41.76257 4.19417,-38.39523 2.72173,-40.28338 -34.73908,-44.54662 -26.49639,-3.01542 -28.88283,-1.88639 -38.45632,-14.16265 -9.57349,-12.27631 -7.18705,-13.40533 -9.39677,-11.59468 -1.47316,1.20711 -2.50412,1.43314 -3.09292,0.6781 -0.77491,-0.99367 4.35465,-5.42443 41.83811,-36.13839 37.48349,-30.71392 42.82973,-34.86688 43.60456,-33.87328 0.58882,0.75503 0.14648,1.73609 -1.32654,2.94316 -2.20971,1.81066 0.17678,0.49345 9.75023,12.76972 9.57349,12.27627 7.18705,13.59348 4.22047,40.75088 -4.19417,38.39523 -2.72171,40.28342 34.73905,44.54662 26.49644,3.01542 26.49644,3.01542 36.06993,15.29169 9.57348,12.2763 9.57348,12.2763 11.7832,10.46564 1.47312,-1.20707 2.50413,-1.43314 3.09295,-0.6781 0.77489,0.99367 -4.3547,5.42447 -41.83817,36.13839 -37.48346,30.71396 -42.82967,34.86688 -43.6045,33.87332 z m 67.91458,-77.00752 c -9.27907,-11.89877 -9.27907,-11.89877 -35.77547,-14.91416 -26.4964,-3.01547 -26.4964,-3.01547 -32.68982,-10.95738 -6.19342,-7.94194 -6.19342,-7.94194 -3.22688,-35.09934 5.73326,-52.48484 -7.0123,-57.98475 -50.9472,-21.98453 -43.93485,36.00022 -41.50842,49.95563 9.69901,55.78328 26.49645,3.01544 26.49645,3.01544 32.68987,10.95738 6.19339,7.94195 6.19339,7.94195 3.22686,35.09931 -5.73327,52.48484 7.01233,57.98475 50.94718,21.98457 35.35555,-28.97037 35.35555,-28.97037 26.07645,-40.86913 z m -67.46551,57.45842 c -5.88794,-7.55024 -5.88794,-7.55024 7.22091,-18.29163 24.39382,-19.98831 -3.25797,-65.4711 -42.55371,-69.99415 -20.20995,-2.32623 -20.20995,-2.32623 3.71092,-21.92696 23.92084,-19.60072 23.92084,-19.60072 21.68304,1.11914 -4.35796,40.35109 32.8439,77.95034 57.29942,57.9115 13.04316,-10.68758 13.04316,-10.68758 18.93115,-3.1373 5.88798,7.55031 5.88798,7.55031 -27.25787,34.71001 -33.14584,27.1597 -33.14584,27.1597 -39.03386,19.60939 z"
       id="path36" />
    <ellipse
       style="fill:#000000;fill-opacity:1;fill-rule:evenodd;stroke:#000000;stroke-width:4.83196;stroke-opacity:0"
       id="path35"
       cx="363.28601"
       cy="362.37369"
       rx="6.715548"
       ry="6.9335899" />
  </g>
</svg>
